<svg width="300" height="300" xmlns="http://www.w3.org/2000/svg">
 <g id="Layer_1">
  <title>Layer 1</title>
  <g id="svg_1">
   <g id="svg_2">
    <title>Layer 1</title>
    <g id="svg_3">
     <g id="svg_4" fill="#000000" transform="translate(0 1024) scale(0.1 -0.1)">
      <path id="svg_5" d="m2182.26953,10135.31075c-67,-31 -105,-86 -105,-150c0,-104 103,-182 207,-156c92,24 141,92 128,179c-7,47 -49,103 -96,128c-35,18 -95,18 -134,-1zm145,-23c14,-10 36,-34 48,-53c20,-28 23,-43 20,-87c-4,-45 -10,-59 -41,-90c-31,-31 -43,-36 -94,-40c-50,-3 -64,0 -100,24c-50,33 -63,59 -63,124c0,38 6,55 27,81c56,66 145,84 203,41z"/>
      <path id="svg_6" d="m1253.26953,10009.31075c-352,-41 -649,-218 -856,-510c-178,-253 -242,-507 -237,-949c3,-265 8,-289 83,-363c66,-67 104,-81 237,-85l117,-4l0,128c0,70 -3,124 -7,120c-5,-4 -8,-58 -8,-119l0,-112l-105,3c-80,3 -114,9 -145,24c-56,28 -102,74 -131,130c-23,46 -24,53 -24,295c-1,174 4,278 14,348c48,308 157,535 356,735c177,179 343,270 595,327c63,14 122,18 275,18c171,0 206,-3 285,-23c167,-44 328,-138 428,-253c79,-90 102,-154 40,-111c-214,147 -385,211 -620,233c-464,42 -872,-178 -1069,-576c-100,-203 -124,-335 -124,-678l0,-218l26,-24c33,-31 96,-49 140,-40c57,10 45,20 -27,20c-61,0 -71,3 -95,27l-27,27l0,233c0,260 12,358 64,513c144,430 535,705 1001,705c254,0 447,-57 667,-198c130,-83 157,-69 77,42c-185,257 -531,382 -930,335z"/>
      <path id="svg_7" d="m2604.26953,9726.31075c-74,-27 -107,-76 -107,-158c0,-90 54,-150 147,-164c55,-8 128,26 160,75c47,70 25,180 -47,233c-34,25 -106,31 -153,14zm139,-22c39,-19 74,-83 74,-135c0,-47 -38,-108 -80,-130c-49,-26 -119,-25 -160,4c-125,85 -68,277 82,277c28,0 65,-7 84,-16z"/>
      <path id="svg_8" d="m677.26953,9060.31075l0,-160l364,0c238,0 367,-4 371,-10c4,-6 -11,-32 -32,-58c-40,-48 -279,-364 -343,-452c-43,-59 -392,-518 -495,-652c-82,-105 -81,-102 -77,-240l2,-78l620,0l620,0l0,233c0,214 2,235 18,250c10,10 21,17 25,17c3,0 97,-107 208,-237c112,-131 210,-243 219,-250c11,-9 80,-12 247,-13c217,0 232,1 226,18c-4,9 -61,77 -127,151c-67,74 -184,205 -261,291c-248,276 -285,318 -285,325c0,3 115,148 255,321c155,190 262,314 273,314c28,0 73,36 104,82c27,39 29,49 26,109c-4,81 -37,131 -106,161c-49,22 -130,27 -173,10c-74,-29 -128,-111 -129,-194c0,-47 -3,-51 -138,-205c-76,-87 -196,-225 -267,-308c-71,-82 -155,-179 -186,-215c-31,-36 -107,-123 -168,-193l-111,-128l0,-110l0,-109l-211,0l-210,0l48,68c56,79 313,426 736,995c165,220 301,407 304,414c4,11 -115,13 -671,13l-676,0l0,-160zm1330,145c0,-2 -74,-102 -163,-222c-90,-120 -255,-342 -367,-493c-112,-151 -247,-333 -300,-405c-53,-71 -135,-183 -183,-247l-87,-118l235,0l235,0l0,113l0,113l141,165c203,236 487,563 612,706l108,123l4,59c5,90 41,144 117,176c123,51 267,-36 268,-163c0,-66 -81,-171 -133,-172c-16,-1 -44,-28 -98,-98c-42,-53 -158,-197 -258,-320c-99,-123 -181,-225 -181,-226c0,-4 142,-166 295,-336c66,-74 180,-202 254,-285l135,-150l-220,-3l-219,-3l-50,53c-44,47 -377,434 -398,462c-5,7 -17,-1 -34,-22l-27,-33l3,-204c1,-112 -1,-215 -5,-229l-6,-26l-604,0l-604,0l0,100l0,100l68,88c69,88 294,386 630,832c102,135 207,273 234,308l50,62l-384,0l-383,0l0,142l0,143l640,5c352,3 648,6 658,8c9,1 17,0 17,-3z"/>
      <path id="svg_9" d="m4516.26953,9191.31075c-95,-31 -149,-95 -149,-181c0,-100 102,-187 207,-177c28,3 67,13 86,22c42,20 83,76 92,126c13,71 -31,161 -94,193c-35,18 -109,27 -142,17zm135,-34c57,-33 79,-67 84,-134c3,-49 0,-64 -20,-93c-39,-58 -82,-80 -153,-80c-71,0 -114,22 -152,79c-32,47 -32,125 0,172c51,76 162,102 241,56z"/>
      <path id="svg_10" d="m3233.26953,9173.31075c-3,-4 -6,-71 -6,-150l0,-143l325,0c179,0 325,-2 325,-4c0,-15 -663,-971 -681,-982c-5,-3 -9,-70 -9,-150l0,-144l545,0l545,0l0,145l0,145l-350,0c-192,0 -350,2 -350,4c0,2 37,63 83,134c325,516 479,759 529,836l58,90l0,113l0,113l-504,-1c-277,0 -507,-3 -510,-6zm1004,-110l0,-96l-239,-376c-131,-207 -286,-451 -344,-543l-106,-168l360,0l359,0l0,-135l0,-135l-530,0l-530,0l0,137c0,118 2,139 18,157c19,21 300,425 477,686c55,80 123,179 152,220l53,75l-333,3l-333,2l-1,135l0,135l498,0l499,0l0,-97z"/>
      <path id="svg_11" d="m4884.26953,9174.31075c-4,-4 -7,-360 -7,-791l0,-783l150,0l150,0l0,182l0,181l58,61c31,34 60,62 64,64c8,4 11,-1 158,-238c57,-91 116,-184 132,-207l29,-43l170,0l170,0l-17,33c-9,17 -29,48 -43,67c-39,50 -391,586 -391,595c0,3 60,72 133,152c185,204 266,297 267,306c0,4 -87,7 -192,7l-193,-1l-30,-38c-61,-78 -310,-371 -315,-371c-3,0 -5,186 -5,412l0,413l-141,3c-77,1 -143,-1 -147,-4zm275,-446l3,-431l60,75c33,41 118,143 189,227l129,151l175,0c166,0 174,-1 160,-17c-8,-10 -99,-112 -202,-226c-117,-130 -184,-212 -180,-220c20,-32 152,-234 283,-432c80,-120 150,-225 154,-232c6,-10 -23,-13 -147,-13l-156,0l-56,88c-31,48 -104,163 -161,255l-105,168l-74,-78l-73,-78l-1,-177l0,-178l-135,0l-135,0l0,775l0,775l135,0l135,0l2,-432z"/>
      <path id="svg_12" d="m6684.26953,9174.31075c-12,-12 -8,-1404 3,-1446c14,-48 55,-97 97,-114c22,-10 76,-14 168,-14l135,0l0,120c0,66 0,123 0,128c-1,4 -20,6 -43,4c-82,-6 -77,-50 -79,679l-3,644l-136,3c-74,1 -138,-1 -142,-4zm263,-638c0,-414 4,-633 11,-654c11,-32 31,-42 87,-42l32,0l0,-115l0,-115l-107,0c-126,1 -189,13 -222,43c-52,48 -51,34 -51,797l0,710l125,0l125,0l0,-624z"/>
      <path id="svg_13" d="m8317.26953,8390.31075l0,-790l140,0l140,0l0,55l0,56l38,-29c101,-79 269,-104 404,-62c221,70 340,249 355,533c8,149 -7,228 -67,353c-38,78 -61,112 -100,147c-160,144 -410,166 -579,53l-51,-35l0,255l0,254l-140,0l-140,0l0,-790zm270,508l0,-262l28,26c96,91 284,125 435,78c227,-70 364,-336 327,-635c-34,-280 -175,-448 -409,-486c-126,-21 -262,17 -350,96l-41,37l0,-68l0,-69l-125,0l-125,0l0,773l0,772l130,0l130,0l0,-262z"/>
      <path id="svg_14" d="m8751.26953,8497.31075c-186,-89 -234,-418 -82,-564c68,-65 180,-90 279,-63c98,27 170,145 177,291c7,146 -44,262 -141,323c-67,41 -162,47 -233,13zm214,-19c50,-23 104,-90 127,-157c55,-159 6,-344 -109,-416c-44,-27 -58,-30 -125,-30c-86,0 -135,20 -187,77c-54,59 -69,109 -69,233c0,96 3,116 24,159c73,148 202,199 339,134z"/>
      <path id="svg_15" d="m7588.26953,8770.31075c-110,-23 -221,-97 -281,-188c-27,-40 -76,-170 -67,-178c1,-2 66,-4 142,-5l140,-2l14,29c18,38 50,73 83,90c38,20 135,18 178,-4c41,-20 80,-83 80,-129c0,-29 -3,-33 -27,-33c-16,0 -73,-7 -128,-15c-290,-43 -435,-116 -502,-254c-24,-49 -28,-68 -28,-146c0,-106 19,-157 86,-230c56,-61 121,-93 214,-106c131,-18 230,11 332,97c28,24 53,44 55,44c2,0 2,-31 0,-70l-4,-70l146,0l147,0l-3,448c-4,488 -2,473 -66,571c-72,109 -168,153 -347,157c-66,2 -140,-1 -164,-6zm262,-14c41,-8 94,-24 117,-36c74,-38 147,-128 171,-214c5,-16 9,-222 9,-458l1,-429l-126,-2l-125,-2l0,83c0,45 -1,82 -3,82c-1,0 -29,-24 -61,-54c-32,-30 -84,-67 -115,-83c-51,-25 -66,-27 -166,-28c-130,0 -175,16 -254,90c-70,66 -94,131 -89,245c4,103 30,163 97,222c89,78 221,122 460,154l133,17l-5,44c-11,103 -100,171 -205,159c-75,-9 -126,-39 -154,-93l-23,-43l-127,0c-71,0 -128,4 -128,8c0,5 9,35 20,67c24,69 86,155 142,195c106,77 272,106 431,76z"/>
      <path id="svg_16" d="m7742.26953,8146.31075c-71,-13 -146,-31 -165,-40c-79,-41 -118,-104 -105,-173c9,-52 31,-79 76,-97c159,-64 333,69 347,264c4,56 2,70 -9,69c-8,-1 -72,-11 -144,-23zm135,-58c-14,-128 -95,-225 -208,-249c-103,-21 -171,20 -179,108c-9,98 62,154 235,183c170,28 159,31 152,-42z"/>
      <path id="svg_17" d="m4557.26953,8760.31075c-115,-4 -155,-8 -154,-17c1,-7 2,-267 3,-578l1,-565l160,0l160,0l0,579c0,319 -3,581 -7,583c-5,2 -78,1 -163,-2zm152,-583l3,-567l-147,0l-148,0l0,570l0,571l145,-3l145,-3l2,-568z"/>
      <path id="svg_18" d="m5957.26953,8225.31075l0,-125l290,0l290,0l0,125l0,125l-290,0l-290,0l0,-125zm570,-5l0,-110l-280,0l-281,0l2,110l1,110l279,0l279,0l0,-110z"/>
     </g>
    </g>
   </g>
  </g>
 </g>

</svg>