<?xml version="1.0" standalone="no"?>
<!DOCTYPE svg PUBLIC "-//W3C//DTD SVG 20010904//EN"
 "http://www.w3.org/TR/2001/REC-SVG-20010904/DTD/svg10.dtd">
<svg version="1.0" xmlns="http://www.w3.org/2000/svg"
 width="1536.000000pt" height="1024.000000pt" viewBox="0 0 1536.000000 1024.000000"
 preserveAspectRatio="xMidYMid meet">

<g transform="translate(0.000000,1024.000000) scale(0.100000,-0.100000)"
fill="#000000" stroke="none">
<path d="M5175 6775 c-67 -31 -105 -86 -105 -150 0 -104 103 -182 207 -156 92
24 141 92 128 179 -7 47 -49 103 -96 128 -35 18 -95 18 -134 -1z m145 -23 c14
-10 36 -34 48 -53 20 -28 23 -43 20 -87 -4 -45 -10 -59 -41 -90 -31 -31 -43
-36 -94 -40 -50 -3 -64 0 -100 24 -50 33 -63 59 -63 124 0 38 6 55 27 81 56
66 145 84 203 41z"/>
<path d="M4246 6649 c-352 -41 -649 -218 -856 -510 -178 -253 -242 -507 -237
-949 3 -265 8 -289 83 -363 66 -67 104 -81 237 -85 l117 -4 0 128 c0 70 -3
124 -7 120 -5 -4 -8 -58 -8 -119 l0 -112 -105 3 c-80 3 -114 9 -145 24 -56 28
-102 74 -131 130 -23 46 -24 53 -24 295 -1 174 4 278 14 348 48 308 157 535
356 735 177 179 343 270 595 327 63 14 122 18 275 18 171 0 206 -3 285 -23
167 -44 328 -138 428 -253 79 -90 102 -154 40 -111 -214 147 -385 211 -620
233 -464 42 -872 -178 -1069 -576 -100 -203 -124 -335 -124 -678 l0 -218 26
-24 c33 -31 96 -49 140 -40 57 10 45 20 -27 20 -61 0 -71 3 -95 27 l-27 27 0
233 c0 260 12 358 64 513 144 430 535 705 1001 705 254 0 447 -57 667 -198
130 -83 157 -69 77 42 -185 257 -531 382 -930 335z"/>
<path d="M5597 6366 c-74 -27 -107 -76 -107 -158 0 -90 54 -150 147 -164 55
-8 128 26 160 75 47 70 25 180 -47 233 -34 25 -106 31 -153 14z m139 -22 c39
-19 74 -83 74 -135 0 -47 -38 -108 -80 -130 -49 -26 -119 -25 -160 4 -125 85
-68 277 82 277 28 0 65 -7 84 -16z"/>
<path d="M3670 5700 l0 -160 364 0 c238 0 367 -4 371 -10 4 -6 -11 -32 -32
-58 -40 -48 -279 -364 -343 -452 -43 -59 -392 -518 -495 -652 -82 -105 -81
-102 -77 -240 l2 -78 620 0 620 0 0 233 c0 214 2 235 18 250 10 10 21 17 25
17 3 0 97 -107 208 -237 112 -131 210 -243 219 -250 11 -9 80 -12 247 -13 217
0 232 1 226 18 -4 9 -61 77 -127 151 -67 74 -184 205 -261 291 -248 276 -285
318 -285 325 0 3 115 148 255 321 155 190 262 314 273 314 28 0 73 36 104 82
27 39 29 49 26 109 -4 81 -37 131 -106 161 -49 22 -130 27 -173 10 -74 -29
-128 -111 -129 -194 0 -47 -3 -51 -138 -205 -76 -87 -196 -225 -267 -308 -71
-82 -155 -179 -186 -215 -31 -36 -107 -123 -168 -193 l-111 -128 0 -110 0
-109 -211 0 -210 0 48 68 c56 79 313 426 736 995 165 220 301 407 304 414 4
11 -115 13 -671 13 l-676 0 0 -160z m1330 145 c0 -2 -74 -102 -163 -222 -90
-120 -255 -342 -367 -493 -112 -151 -247 -333 -300 -405 -53 -71 -135 -183
-183 -247 l-87 -118 235 0 235 0 0 113 0 113 141 165 c203 236 487 563 612
706 l108 123 4 59 c5 90 41 144 117 176 123 51 267 -36 268 -163 0 -66 -81
-171 -133 -172 -16 -1 -44 -28 -98 -98 -42 -53 -158 -197 -258 -320 -99 -123
-181 -225 -181 -226 0 -4 142 -166 295 -336 66 -74 180 -202 254 -285 l135
-150 -220 -3 -219 -3 -50 53 c-44 47 -377 434 -398 462 -5 7 -17 -1 -34 -22
l-27 -33 3 -204 c1 -112 -1 -215 -5 -229 l-6 -26 -604 0 -604 0 0 100 0 100
68 88 c69 88 294 386 630 832 102 135 207 273 234 308 l50 62 -384 0 -383 0 0
142 0 143 640 5 c352 3 648 6 658 8 9 1 17 0 17 -3z"/>
<path d="M7509 5831 c-95 -31 -149 -95 -149 -181 0 -100 102 -187 207 -177 28
3 67 13 86 22 42 20 83 76 92 126 13 71 -31 161 -94 193 -35 18 -109 27 -142
17z m135 -34 c57 -33 79 -67 84 -134 3 -49 0 -64 -20 -93 -39 -58 -82 -80
-153 -80 -71 0 -114 22 -152 79 -32 47 -32 125 0 172 51 76 162 102 241 56z"/>
<path d="M6226 5813 c-3 -4 -6 -71 -6 -150 l0 -143 325 0 c179 0 325 -2 325
-4 0 -15 -663 -971 -681 -982 -5 -3 -9 -70 -9 -150 l0 -144 545 0 545 0 0 145
0 145 -350 0 c-192 0 -350 2 -350 4 0 2 37 63 83 134 325 516 479 759 529 836
l58 90 0 113 0 113 -504 -1 c-277 0 -507 -3 -510 -6z m1004 -110 l0 -96 -239
-376 c-131 -207 -286 -451 -344 -543 l-106 -168 360 0 359 0 0 -135 0 -135
-530 0 -530 0 0 137 c0 118 2 139 18 157 19 21 300 425 477 686 55 80 123 179
152 220 l53 75 -333 3 -333 2 -1 135 0 135 498 0 499 0 0 -97z"/>
<path d="M7877 5814 c-4 -4 -7 -360 -7 -791 l0 -783 150 0 150 0 0 182 0 181
58 61 c31 34 60 62 64 64 8 4 11 -1 158 -238 57 -91 116 -184 132 -207 l29
-43 170 0 170 0 -17 33 c-9 17 -29 48 -43 67 -39 50 -391 586 -391 595 0 3 60
72 133 152 185 204 266 297 267 306 0 4 -87 7 -192 7 l-193 -1 -30 -38 c-61
-78 -310 -371 -315 -371 -3 0 -5 186 -5 412 l0 413 -141 3 c-77 1 -143 -1
-147 -4z m275 -446 l3 -431 60 75 c33 41 118 143 189 227 l129 151 175 0 c166
0 174 -1 160 -17 -8 -10 -99 -112 -202 -226 -117 -130 -184 -212 -180 -220 20
-32 152 -234 283 -432 80 -120 150 -225 154 -232 6 -10 -23 -13 -147 -13
l-156 0 -56 88 c-31 48 -104 163 -161 255 l-105 168 -74 -78 -73 -78 -1 -177
0 -178 -135 0 -135 0 0 775 0 775 135 0 135 0 2 -432z"/>
<path d="M9677 5814 c-12 -12 -8 -1404 3 -1446 14 -48 55 -97 97 -114 22 -10
76 -14 168 -14 l135 0 0 120 c0 66 0 123 0 128 -1 4 -20 6 -43 4 -82 -6 -77
-50 -79 679 l-3 644 -136 3 c-74 1 -138 -1 -142 -4z m263 -638 c0 -414 4 -633
11 -654 11 -32 31 -42 87 -42 l32 0 0 -115 0 -115 -107 0 c-126 1 -189 13
-222 43 -52 48 -51 34 -51 797 l0 710 125 0 125 0 0 -624z"/>
<path d="M11310 5030 l0 -790 140 0 140 0 0 55 0 56 38 -29 c101 -79 269 -104
404 -62 221 70 340 249 355 533 8 149 -7 228 -67 353 -38 78 -61 112 -100 147
-160 144 -410 166 -579 53 l-51 -35 0 255 0 254 -140 0 -140 0 0 -790z m270
508 l0 -262 28 26 c96 91 284 125 435 78 227 -70 364 -336 327 -635 -34 -280
-175 -448 -409 -486 -126 -21 -262 17 -350 96 l-41 37 0 -68 0 -69 -125 0
-125 0 0 773 0 772 130 0 130 0 0 -262z"/>
<path d="M11744 5137 c-186 -89 -234 -418 -82 -564 68 -65 180 -90 279 -63 98
27 170 145 177 291 7 146 -44 262 -141 323 -67 41 -162 47 -233 13z m214 -19
c50 -23 104 -90 127 -157 55 -159 6 -344 -109 -416 -44 -27 -58 -30 -125 -30
-86 0 -135 20 -187 77 -54 59 -69 109 -69 233 0 96 3 116 24 159 73 148 202
199 339 134z"/>
<path d="M10581 5410 c-110 -23 -221 -97 -281 -188 -27 -40 -76 -170 -67 -178
1 -2 66 -4 142 -5 l140 -2 14 29 c18 38 50 73 83 90 38 20 135 18 178 -4 41
-20 80 -83 80 -129 0 -29 -3 -33 -27 -33 -16 0 -73 -7 -128 -15 -290 -43 -435
-116 -502 -254 -24 -49 -28 -68 -28 -146 0 -106 19 -157 86 -230 56 -61 121
-93 214 -106 131 -18 230 11 332 97 28 24 53 44 55 44 2 0 2 -31 0 -70 l-4
-70 146 0 147 0 -3 448 c-4 488 -2 473 -66 571 -72 109 -168 153 -347 157 -66
2 -140 -1 -164 -6z m262 -14 c41 -8 94 -24 117 -36 74 -38 147 -128 171 -214
5 -16 9 -222 9 -458 l1 -429 -126 -2 -125 -2 0 83 c0 45 -1 82 -3 82 -1 0 -29
-24 -61 -54 -32 -30 -84 -67 -115 -83 -51 -25 -66 -27 -166 -28 -130 0 -175
16 -254 90 -70 66 -94 131 -89 245 4 103 30 163 97 222 89 78 221 122 460 154
l133 17 -5 44 c-11 103 -100 171 -205 159 -75 -9 -126 -39 -154 -93 l-23 -43
-127 0 c-71 0 -128 4 -128 8 0 5 9 35 20 67 24 69 86 155 142 195 106 77 272
106 431 76z"/>
<path d="M10735 4786 c-71 -13 -146 -31 -165 -40 -79 -41 -118 -104 -105 -173
9 -52 31 -79 76 -97 159 -64 333 69 347 264 4 56 2 70 -9 69 -8 -1 -72 -11
-144 -23z m135 -58 c-14 -128 -95 -225 -208 -249 -103 -21 -171 20 -179 108
-9 98 62 154 235 183 170 28 159 31 152 -42z"/>
<path d="M7550 5400 c-115 -4 -155 -8 -154 -17 1 -7 2 -267 3 -578 l1 -565
160 0 160 0 0 579 c0 319 -3 581 -7 583 -5 2 -78 1 -163 -2z m152 -583 l3
-567 -147 0 -148 0 0 570 0 571 145 -3 145 -3 2 -568z"/>
<path d="M8950 4865 l0 -125 290 0 290 0 0 125 0 125 -290 0 -290 0 0 -125z
m570 -5 l0 -110 -280 0 -281 0 2 110 1 110 279 0 279 0 0 -110z"/>
</g>
</svg>
